<mxfile host="app.diagrams.net" modified="2023-03-28T20:17:10.751Z" agent="Mozilla/5.0 (Windows NT 10.0; Win64; x64) AppleWebKit/537.36 (KHTML, like Gecko) Chrome/109.0.0.0 Safari/537.36" etag="0nVg4m7sWkBZgHH7FD68" version="21.1.1" type="device">
  <diagram name="Page-1" id="10Ervpmdu_fLArph98cz">
    <mxGraphModel dx="1885" dy="614" grid="1" gridSize="10" guides="1" tooltips="1" connect="1" arrows="1" fold="1" page="1" pageScale="1" pageWidth="850" pageHeight="1100" math="0" shadow="0">
      <root>
        <mxCell id="0" />
        <mxCell id="1" parent="0" />
        <mxCell id="9Ty_2uQjHelVY3vemoVg-1" value="&lt;div style=&quot;box-sizing: border-box; width: 100%; background: rgb(228, 228, 228); padding: 2px; font-size: 12px;&quot;&gt;USER&lt;/div&gt;&lt;table style=&quot;width: 100%; font-size: 12px;&quot; cellpadding=&quot;2&quot; cellspacing=&quot;0&quot;&gt;&lt;tbody style=&quot;font-size: 12px;&quot;&gt;&lt;tr style=&quot;font-size: 12px;&quot;&gt;&lt;td style=&quot;font-size: 12px;&quot;&gt;&lt;span style=&quot;font-size: 12px;&quot;&gt;PK&lt;/span&gt;&lt;/td&gt;&lt;td style=&quot;font-size: 12px;&quot;&gt;&lt;span style=&quot;font-size: 12px;&quot;&gt;USER_ID&amp;nbsp; &amp;nbsp; &amp;nbsp; &amp;nbsp; &amp;nbsp; &amp;nbsp; &amp;nbsp; &amp;nbsp; &amp;nbsp; &amp;nbsp; &amp;nbsp; &amp;nbsp; &amp;nbsp; &amp;nbsp; &amp;nbsp; &amp;nbsp;int&lt;/span&gt;&lt;/td&gt;&lt;/tr&gt;&lt;tr style=&quot;font-size: 12px;&quot;&gt;&lt;td style=&quot;font-size: 12px;&quot;&gt;&lt;span style=&quot;font-size: 12px;&quot;&gt;&amp;nbsp; &amp;nbsp; &amp;nbsp;&amp;nbsp;&lt;/span&gt;&lt;/td&gt;&lt;td style=&quot;font-size: 12px;&quot;&gt;&lt;span style=&quot;font-size: 12px;&quot;&gt;USER_EMAIL&amp;nbsp; &amp;nbsp; &amp;nbsp; &amp;nbsp; &amp;nbsp; &amp;nbsp; &amp;nbsp; &amp;nbsp;varchar&lt;/span&gt;&lt;/td&gt;&lt;/tr&gt;&lt;tr style=&quot;font-size: 12px;&quot;&gt;&lt;td style=&quot;font-size: 12px;&quot;&gt;&lt;/td&gt;&lt;td style=&quot;font-size: 12px;&quot;&gt;&lt;span style=&quot;font-size: 12px;&quot;&gt;USER_LOGIN&amp;nbsp; &amp;nbsp; &amp;nbsp; &amp;nbsp; &amp;nbsp; &amp;nbsp; &amp;nbsp; &amp;nbsp;varchar&lt;/span&gt;&lt;table style=&quot;border-color: var(--border-color); font-size: 12px; width: 180px;&quot; cellpadding=&quot;2&quot; cellspacing=&quot;0&quot;&gt;&lt;tbody style=&quot;border-color: var(--border-color); font-size: 12px;&quot;&gt;&lt;tr style=&quot;border-color: var(--border-color); font-size: 12px;&quot;&gt;&lt;td style=&quot;border-color: var(--border-color); font-size: 12px;&quot;&gt;&lt;span style=&quot;font-size: 12px;&quot;&gt;USER_NAME&amp;nbsp; &amp;nbsp; &amp;nbsp; &amp;nbsp; &amp;nbsp; &amp;nbsp; &amp;nbsp; varchar&lt;/span&gt;&lt;/td&gt;&lt;/tr&gt;&lt;tr style=&quot;border-color: var(--border-color); font-size: 12px;&quot;&gt;&lt;td style=&quot;border-color: var(--border-color); font-size: 12px;&quot;&gt;&lt;span style=&quot;font-size: 12px;&quot;&gt;BIRTHDAY&amp;nbsp; &amp;nbsp; &amp;nbsp; &amp;nbsp; &amp;nbsp; &amp;nbsp; &amp;nbsp; &amp;nbsp; &amp;nbsp; &amp;nbsp; &amp;nbsp; &amp;nbsp; date&lt;br style=&quot;font-size: 12px;&quot;&gt;&lt;br style=&quot;font-size: 12px;&quot;&gt;&lt;/span&gt;&lt;/td&gt;&lt;td style=&quot;border-color: var(--border-color); font-size: 12px;&quot;&gt;&lt;span style=&quot;font-size: 12px;&quot;&gt;&lt;br style=&quot;font-size: 12px;&quot;&gt;&lt;/span&gt;&lt;/td&gt;&lt;/tr&gt;&lt;/tbody&gt;&lt;/table&gt;&lt;/td&gt;&lt;/tr&gt;&lt;/tbody&gt;&lt;/table&gt;" style="verticalAlign=middle;align=center;overflow=fill;html=1;whiteSpace=wrap;fillColor=#fff2cc;strokeColor=#d6b656;gradientColor=#ffd966;fontStyle=1;fontSize=12;horizontal=1;labelBorderColor=default;" vertex="1" parent="1">
          <mxGeometry x="400" y="145" width="210" height="120" as="geometry" />
        </mxCell>
        <mxCell id="9Ty_2uQjHelVY3vemoVg-3" value="&lt;div style=&quot;box-sizing: border-box; width: 100%; background: rgb(228, 228, 228); padding: 2px; font-size: 12px;&quot;&gt;FILM&lt;/div&gt;&lt;table style=&quot;width: 100%; font-size: 12px;&quot; cellpadding=&quot;2&quot; cellspacing=&quot;0&quot;&gt;&lt;tbody style=&quot;font-size: 12px;&quot;&gt;&lt;tr style=&quot;font-size: 12px;&quot;&gt;&lt;td style=&quot;font-size: 12px;&quot;&gt;&lt;span style=&quot;font-size: 12px;&quot;&gt;PK&lt;/span&gt;&lt;/td&gt;&lt;td style=&quot;font-size: 12px;&quot;&gt;&lt;span style=&quot;font-size: 12px;&quot;&gt;FILM_ID&amp;nbsp; &amp;nbsp; &amp;nbsp; &amp;nbsp; &amp;nbsp; &amp;nbsp; &amp;nbsp; &amp;nbsp; &amp;nbsp; &amp;nbsp; &amp;nbsp; &amp;nbsp; &amp;nbsp; &amp;nbsp; &amp;nbsp; &amp;nbsp; int&lt;/span&gt;&lt;/td&gt;&lt;/tr&gt;&lt;tr style=&quot;font-size: 12px;&quot;&gt;&lt;td style=&quot;font-size: 12px;&quot;&gt;&lt;span style=&quot;font-size: 12px;&quot;&gt;&amp;nbsp; &amp;nbsp; &amp;nbsp;&amp;nbsp;&lt;/span&gt;&lt;/td&gt;&lt;td style=&quot;font-size: 12px;&quot;&gt;&lt;span style=&quot;font-size: 12px;&quot;&gt;FILM_NAME&amp;nbsp; &amp;nbsp; &amp;nbsp; &amp;nbsp; &amp;nbsp; &amp;nbsp; &amp;nbsp; &amp;nbsp; varchar&lt;/span&gt;&lt;/td&gt;&lt;/tr&gt;&lt;tr style=&quot;font-size: 12px;&quot;&gt;&lt;td style=&quot;font-size: 12px;&quot;&gt;&lt;/td&gt;&lt;td style=&quot;font-size: 12px;&quot;&gt;&lt;span style=&quot;font-size: 12px;&quot;&gt;DESCRIPTION&amp;nbsp; &amp;nbsp; &amp;nbsp; &amp;nbsp; &amp;nbsp; &amp;nbsp; &amp;nbsp;varchar&lt;/span&gt;&lt;table style=&quot;border-color: var(--border-color); font-size: 12px; width: 180px;&quot; cellpadding=&quot;2&quot; cellspacing=&quot;0&quot;&gt;&lt;tbody style=&quot;border-color: var(--border-color); font-size: 12px;&quot;&gt;&lt;tr style=&quot;border-color: var(--border-color); font-size: 12px;&quot;&gt;&lt;td style=&quot;border-color: var(--border-color); font-size: 12px;&quot;&gt;&lt;span style=&quot;font-size: 12px;&quot;&gt;&amp;nbsp;RELEASE_DATE&amp;nbsp; &amp;nbsp; &amp;nbsp; &amp;nbsp; &amp;nbsp; &amp;nbsp; &amp;nbsp; date&lt;/span&gt;&lt;/td&gt;&lt;/tr&gt;&lt;tr style=&quot;border-color: var(--border-color); font-size: 12px;&quot;&gt;&lt;td style=&quot;border-color: var(--border-color); font-size: 12px;&quot;&gt;&lt;span style=&quot;font-size: 12px;&quot;&gt;DURATION&amp;nbsp; &amp;nbsp; &amp;nbsp; &amp;nbsp; &amp;nbsp; &amp;nbsp; &amp;nbsp; &amp;nbsp; &amp;nbsp; &amp;nbsp; &amp;nbsp; &amp;nbsp; &amp;nbsp; int&lt;br style=&quot;font-size: 12px;&quot;&gt;&lt;br style=&quot;font-size: 12px;&quot;&gt;&lt;/span&gt;&lt;/td&gt;&lt;td style=&quot;border-color: var(--border-color); font-size: 12px;&quot;&gt;&lt;span style=&quot;font-size: 12px;&quot;&gt;&lt;br style=&quot;font-size: 12px;&quot;&gt;&lt;/span&gt;&lt;/td&gt;&lt;/tr&gt;&lt;/tbody&gt;&lt;/table&gt;&lt;/td&gt;&lt;/tr&gt;&lt;/tbody&gt;&lt;/table&gt;" style="verticalAlign=middle;align=center;overflow=fill;html=1;whiteSpace=wrap;fillColor=#fff2cc;strokeColor=#d6b656;gradientColor=#ffd966;fontStyle=1;fontSize=12;horizontal=1;labelBorderColor=default;" vertex="1" parent="1">
          <mxGeometry x="80" y="60" width="210" height="120" as="geometry" />
        </mxCell>
        <mxCell id="9Ty_2uQjHelVY3vemoVg-4" value="&lt;div style=&quot;box-sizing: border-box; width: 100%; background: rgb(228, 228, 228); padding: 2px; font-size: 12px;&quot;&gt;FRIENDS&lt;/div&gt;&lt;table style=&quot;width: 100%; font-size: 12px;&quot; cellpadding=&quot;2&quot; cellspacing=&quot;0&quot;&gt;&lt;tbody style=&quot;font-size: 12px;&quot;&gt;&lt;tr style=&quot;font-size: 12px;&quot;&gt;&lt;td style=&quot;font-size: 12px;&quot;&gt;&lt;span style=&quot;font-size: 12px;&quot;&gt;PK&lt;/span&gt;&lt;/td&gt;&lt;td style=&quot;font-size: 12px;&quot;&gt;&lt;span style=&quot;font-size: 12px;&quot;&gt;USER_ID&amp;nbsp; &amp;nbsp; &amp;nbsp; &amp;nbsp; &amp;nbsp; &amp;nbsp; &amp;nbsp; &amp;nbsp; &amp;nbsp; &amp;nbsp; &amp;nbsp; &amp;nbsp; &amp;nbsp; &amp;nbsp; &amp;nbsp; &amp;nbsp;int&lt;/span&gt;&lt;/td&gt;&lt;/tr&gt;&lt;tr style=&quot;font-size: 12px;&quot;&gt;&lt;td style=&quot;font-size: 12px;&quot;&gt;&lt;span style=&quot;font-size: 12px;&quot;&gt;&amp;nbsp;FK&amp;nbsp;&lt;/span&gt;&lt;/td&gt;&lt;td style=&quot;font-size: 12px;&quot;&gt;&lt;span style=&quot;font-size: 12px;&quot;&gt;FRIEND_ID&amp;nbsp; &amp;nbsp; &amp;nbsp; &amp;nbsp; &amp;nbsp; &amp;nbsp; &amp;nbsp; &amp;nbsp; &amp;nbsp; &amp;nbsp; &amp;nbsp; &amp;nbsp; &amp;nbsp; &amp;nbsp;int&lt;/span&gt;&lt;/td&gt;&lt;/tr&gt;&lt;tr style=&quot;font-size: 12px;&quot;&gt;&lt;td style=&quot;font-size: 12px;&quot;&gt;&lt;/td&gt;&lt;td style=&quot;font-size: 12px;&quot;&gt;&lt;span style=&quot;font-size: 12px;&quot;&gt;FRIEND_STATUS&amp;nbsp; &amp;nbsp; &amp;nbsp; &amp;nbsp; varchar&lt;/span&gt;&lt;table style=&quot;border-color: var(--border-color); font-size: 12px; width: 180px;&quot; cellpadding=&quot;2&quot; cellspacing=&quot;0&quot;&gt;&lt;tbody style=&quot;border-color: var(--border-color); font-size: 12px;&quot;&gt;&lt;tr style=&quot;border-color: var(--border-color); font-size: 12px;&quot;&gt;&lt;td style=&quot;border-color: var(--border-color); font-size: 12px;&quot;&gt;&lt;br&gt;&lt;/td&gt;&lt;/tr&gt;&lt;tr style=&quot;border-color: var(--border-color); font-size: 12px;&quot;&gt;&lt;td style=&quot;border-color: var(--border-color); font-size: 12px;&quot;&gt;&lt;span style=&quot;font-size: 12px;&quot;&gt;&lt;br style=&quot;font-size: 12px;&quot;&gt;&lt;br style=&quot;font-size: 12px;&quot;&gt;&lt;/span&gt;&lt;/td&gt;&lt;td style=&quot;border-color: var(--border-color); font-size: 12px;&quot;&gt;&lt;span style=&quot;font-size: 12px;&quot;&gt;&lt;br style=&quot;font-size: 12px;&quot;&gt;&lt;/span&gt;&lt;/td&gt;&lt;/tr&gt;&lt;/tbody&gt;&lt;/table&gt;&lt;/td&gt;&lt;/tr&gt;&lt;/tbody&gt;&lt;/table&gt;" style="verticalAlign=middle;align=center;overflow=fill;html=1;whiteSpace=wrap;fillColor=#fff2cc;strokeColor=#d6b656;gradientColor=#ffd966;fontStyle=1;fontSize=12;horizontal=1;labelBorderColor=default;" vertex="1" parent="1">
          <mxGeometry x="400" y="295" width="210" height="80" as="geometry" />
        </mxCell>
        <mxCell id="9Ty_2uQjHelVY3vemoVg-6" value="&lt;div style=&quot;box-sizing: border-box; width: 100%; background: rgb(228, 228, 228); padding: 2px; font-size: 12px;&quot;&gt;FILM_GENRE&lt;/div&gt;&lt;table style=&quot;width: 100%; font-size: 12px;&quot; cellpadding=&quot;2&quot; cellspacing=&quot;0&quot;&gt;&lt;tbody style=&quot;font-size: 12px;&quot;&gt;&lt;tr style=&quot;font-size: 12px;&quot;&gt;&lt;td style=&quot;font-size: 12px;&quot;&gt;&lt;span style=&quot;font-size: 12px;&quot;&gt;PK&lt;/span&gt;&lt;/td&gt;&lt;td style=&quot;font-size: 12px;&quot;&gt;&lt;span style=&quot;font-size: 12px;&quot;&gt;FILM_ID&amp;nbsp; &amp;nbsp; &amp;nbsp; &amp;nbsp; &amp;nbsp; &amp;nbsp; &amp;nbsp; &amp;nbsp; &amp;nbsp; &amp;nbsp; &amp;nbsp; &amp;nbsp; &amp;nbsp; &amp;nbsp; &amp;nbsp; &amp;nbsp; int&lt;/span&gt;&lt;/td&gt;&lt;/tr&gt;&lt;tr style=&quot;font-size: 12px;&quot;&gt;&lt;td style=&quot;font-size: 12px;&quot;&gt;FK&lt;/td&gt;&lt;td style=&quot;font-size: 12px;&quot;&gt;&lt;span style=&quot;font-size: 12px;&quot;&gt;GENRE_ID&amp;nbsp; &amp;nbsp; &amp;nbsp; &amp;nbsp; &amp;nbsp; &amp;nbsp; &amp;nbsp; &amp;nbsp; &amp;nbsp; &amp;nbsp; &amp;nbsp; &amp;nbsp; &amp;nbsp; &amp;nbsp; int&lt;/span&gt;&lt;/td&gt;&lt;/tr&gt;&lt;tr style=&quot;font-size: 12px;&quot;&gt;&lt;td style=&quot;font-size: 12px;&quot;&gt;&lt;br&gt;&lt;/td&gt;&lt;td style=&quot;font-size: 12px;&quot;&gt;&lt;table style=&quot;border-color: var(--border-color); font-size: 12px; width: 180px;&quot; cellpadding=&quot;2&quot; cellspacing=&quot;0&quot;&gt;&lt;tbody style=&quot;border-color: var(--border-color); font-size: 12px;&quot;&gt;&lt;tr style=&quot;border-color: var(--border-color); font-size: 12px;&quot;&gt;&lt;td style=&quot;border-color: var(--border-color); font-size: 12px;&quot;&gt;&lt;br&gt;&lt;/td&gt;&lt;/tr&gt;&lt;tr style=&quot;border-color: var(--border-color); font-size: 12px;&quot;&gt;&lt;td style=&quot;border-color: var(--border-color); font-size: 12px;&quot;&gt;&lt;span style=&quot;font-size: 12px;&quot;&gt;&lt;br style=&quot;font-size: 12px;&quot;&gt;&lt;br style=&quot;font-size: 12px;&quot;&gt;&lt;/span&gt;&lt;/td&gt;&lt;td style=&quot;border-color: var(--border-color); font-size: 12px;&quot;&gt;&lt;span style=&quot;font-size: 12px;&quot;&gt;&lt;br style=&quot;font-size: 12px;&quot;&gt;&lt;/span&gt;&lt;/td&gt;&lt;/tr&gt;&lt;/tbody&gt;&lt;/table&gt;&lt;/td&gt;&lt;/tr&gt;&lt;/tbody&gt;&lt;/table&gt;" style="verticalAlign=middle;align=center;overflow=fill;html=1;whiteSpace=wrap;fillColor=#fff2cc;strokeColor=#d6b656;gradientColor=#ffd966;fontStyle=1;fontSize=12;horizontal=1;labelBorderColor=default;" vertex="1" parent="1">
          <mxGeometry x="-190" y="170" width="210" height="70" as="geometry" />
        </mxCell>
        <mxCell id="9Ty_2uQjHelVY3vemoVg-7" value="&lt;div style=&quot;box-sizing: border-box; width: 100%; background: rgb(228, 228, 228); padding: 2px; font-size: 12px;&quot;&gt;GENRE&lt;/div&gt;&lt;table style=&quot;width: 100%; font-size: 12px;&quot; cellpadding=&quot;2&quot; cellspacing=&quot;0&quot;&gt;&lt;tbody style=&quot;font-size: 12px;&quot;&gt;&lt;tr style=&quot;font-size: 12px;&quot;&gt;&lt;td style=&quot;font-size: 12px;&quot;&gt;&lt;span style=&quot;font-size: 12px;&quot;&gt;PK&lt;/span&gt;&lt;/td&gt;&lt;td style=&quot;font-size: 12px;&quot;&gt;&lt;span style=&quot;font-size: 12px;&quot;&gt;GENRE_ID&amp;nbsp; &amp;nbsp; &amp;nbsp; &amp;nbsp; &amp;nbsp; &amp;nbsp; &amp;nbsp; &amp;nbsp; &amp;nbsp; &amp;nbsp; &amp;nbsp; &amp;nbsp; &amp;nbsp; &amp;nbsp; &amp;nbsp;int&lt;/span&gt;&lt;/td&gt;&lt;/tr&gt;&lt;tr style=&quot;font-size: 12px;&quot;&gt;&lt;td style=&quot;font-size: 12px;&quot;&gt;&lt;br&gt;&lt;/td&gt;&lt;td style=&quot;font-size: 12px;&quot;&gt;&lt;span style=&quot;font-size: 12px;&quot;&gt;GENRE_NAME&amp;nbsp; &amp;nbsp; &amp;nbsp; &amp;nbsp; &amp;nbsp; &amp;nbsp; &amp;nbsp; varchar&lt;/span&gt;&lt;/td&gt;&lt;/tr&gt;&lt;tr style=&quot;font-size: 12px;&quot;&gt;&lt;td style=&quot;font-size: 12px;&quot;&gt;&lt;br&gt;&lt;/td&gt;&lt;td style=&quot;font-size: 12px;&quot;&gt;&lt;table style=&quot;border-color: var(--border-color); font-size: 12px; width: 180px;&quot; cellpadding=&quot;2&quot; cellspacing=&quot;0&quot;&gt;&lt;tbody style=&quot;border-color: var(--border-color); font-size: 12px;&quot;&gt;&lt;tr style=&quot;border-color: var(--border-color); font-size: 12px;&quot;&gt;&lt;td style=&quot;border-color: var(--border-color); font-size: 12px;&quot;&gt;&lt;br&gt;&lt;/td&gt;&lt;/tr&gt;&lt;tr style=&quot;border-color: var(--border-color); font-size: 12px;&quot;&gt;&lt;td style=&quot;border-color: var(--border-color); font-size: 12px;&quot;&gt;&lt;span style=&quot;font-size: 12px;&quot;&gt;&lt;br style=&quot;font-size: 12px;&quot;&gt;&lt;br style=&quot;font-size: 12px;&quot;&gt;&lt;/span&gt;&lt;/td&gt;&lt;td style=&quot;border-color: var(--border-color); font-size: 12px;&quot;&gt;&lt;span style=&quot;font-size: 12px;&quot;&gt;&lt;br style=&quot;font-size: 12px;&quot;&gt;&lt;/span&gt;&lt;/td&gt;&lt;/tr&gt;&lt;/tbody&gt;&lt;/table&gt;&lt;/td&gt;&lt;/tr&gt;&lt;/tbody&gt;&lt;/table&gt;" style="verticalAlign=middle;align=center;overflow=fill;html=1;whiteSpace=wrap;fillColor=#fff2cc;strokeColor=#d6b656;gradientColor=#ffd966;fontStyle=1;fontSize=12;horizontal=1;labelBorderColor=default;" vertex="1" parent="1">
          <mxGeometry x="-190" y="280" width="210" height="70" as="geometry" />
        </mxCell>
        <mxCell id="9Ty_2uQjHelVY3vemoVg-8" value="&lt;div style=&quot;box-sizing: border-box; width: 100%; background: rgb(228, 228, 228); padding: 2px; font-size: 12px;&quot;&gt;FILM_MPA&lt;/div&gt;&lt;table style=&quot;width: 100%; font-size: 12px;&quot; cellpadding=&quot;2&quot; cellspacing=&quot;0&quot;&gt;&lt;tbody style=&quot;font-size: 12px;&quot;&gt;&lt;tr style=&quot;font-size: 12px;&quot;&gt;&lt;td style=&quot;font-size: 12px;&quot;&gt;&lt;span style=&quot;font-size: 12px;&quot;&gt;PK&lt;/span&gt;&lt;/td&gt;&lt;td style=&quot;font-size: 12px;&quot;&gt;&lt;span style=&quot;font-size: 12px;&quot;&gt;FILM_ID&amp;nbsp; &amp;nbsp; &amp;nbsp; &amp;nbsp; &amp;nbsp; &amp;nbsp; &amp;nbsp; &amp;nbsp; &amp;nbsp; &amp;nbsp; &amp;nbsp; &amp;nbsp; &amp;nbsp; &amp;nbsp; &amp;nbsp; &amp;nbsp; int&lt;/span&gt;&lt;/td&gt;&lt;/tr&gt;&lt;tr style=&quot;font-size: 12px;&quot;&gt;&lt;td style=&quot;font-size: 12px;&quot;&gt;FK&lt;/td&gt;&lt;td style=&quot;font-size: 12px;&quot;&gt;&lt;span style=&quot;font-size: 12px;&quot;&gt;MPA_ID&amp;nbsp; &amp;nbsp; &amp;nbsp; &amp;nbsp; &amp;nbsp; &amp;nbsp; &amp;nbsp; &amp;nbsp; &amp;nbsp; &amp;nbsp; &amp;nbsp; &amp;nbsp; &amp;nbsp; &amp;nbsp; &amp;nbsp; &amp;nbsp; int&lt;/span&gt;&lt;/td&gt;&lt;/tr&gt;&lt;tr style=&quot;font-size: 12px;&quot;&gt;&lt;td style=&quot;font-size: 12px;&quot;&gt;&lt;br&gt;&lt;/td&gt;&lt;td style=&quot;font-size: 12px;&quot;&gt;&lt;table style=&quot;border-color: var(--border-color); font-size: 12px; width: 180px;&quot; cellpadding=&quot;2&quot; cellspacing=&quot;0&quot;&gt;&lt;tbody style=&quot;border-color: var(--border-color); font-size: 12px;&quot;&gt;&lt;tr style=&quot;border-color: var(--border-color); font-size: 12px;&quot;&gt;&lt;td style=&quot;border-color: var(--border-color); font-size: 12px;&quot;&gt;&lt;br&gt;&lt;/td&gt;&lt;/tr&gt;&lt;tr style=&quot;border-color: var(--border-color); font-size: 12px;&quot;&gt;&lt;td style=&quot;border-color: var(--border-color); font-size: 12px;&quot;&gt;&lt;span style=&quot;font-size: 12px;&quot;&gt;&lt;br style=&quot;font-size: 12px;&quot;&gt;&lt;br style=&quot;font-size: 12px;&quot;&gt;&lt;/span&gt;&lt;/td&gt;&lt;td style=&quot;border-color: var(--border-color); font-size: 12px;&quot;&gt;&lt;span style=&quot;font-size: 12px;&quot;&gt;&lt;br style=&quot;font-size: 12px;&quot;&gt;&lt;/span&gt;&lt;/td&gt;&lt;/tr&gt;&lt;/tbody&gt;&lt;/table&gt;&lt;/td&gt;&lt;/tr&gt;&lt;/tbody&gt;&lt;/table&gt;" style="verticalAlign=middle;align=center;overflow=fill;html=1;whiteSpace=wrap;fillColor=#fff2cc;strokeColor=#d6b656;gradientColor=#ffd966;fontStyle=1;fontSize=12;horizontal=1;labelBorderColor=default;" vertex="1" parent="1">
          <mxGeometry x="80" y="225" width="210" height="70" as="geometry" />
        </mxCell>
        <mxCell id="9Ty_2uQjHelVY3vemoVg-9" value="&lt;div style=&quot;box-sizing: border-box; width: 100%; background: rgb(228, 228, 228); padding: 2px; font-size: 12px;&quot;&gt;MPA&lt;/div&gt;&lt;table style=&quot;width: 100%; font-size: 12px;&quot; cellpadding=&quot;2&quot; cellspacing=&quot;0&quot;&gt;&lt;tbody style=&quot;font-size: 12px;&quot;&gt;&lt;tr style=&quot;font-size: 12px;&quot;&gt;&lt;td style=&quot;font-size: 12px;&quot;&gt;&lt;span style=&quot;font-size: 12px;&quot;&gt;PK&lt;/span&gt;&lt;/td&gt;&lt;td style=&quot;font-size: 12px;&quot;&gt;&lt;span style=&quot;font-size: 12px;&quot;&gt;MPA_ID&amp;nbsp; &amp;nbsp; &amp;nbsp; &amp;nbsp; &amp;nbsp; &amp;nbsp; &amp;nbsp; &amp;nbsp; &amp;nbsp; &amp;nbsp; &amp;nbsp; &amp;nbsp; &amp;nbsp; &amp;nbsp; &amp;nbsp; &amp;nbsp; int&lt;/span&gt;&lt;/td&gt;&lt;/tr&gt;&lt;tr style=&quot;font-size: 12px;&quot;&gt;&lt;td style=&quot;font-size: 12px;&quot;&gt;&lt;br&gt;&lt;/td&gt;&lt;td style=&quot;font-size: 12px;&quot;&gt;&lt;span style=&quot;font-size: 12px;&quot;&gt;MPA_NAME&amp;nbsp; &amp;nbsp; &amp;nbsp; &amp;nbsp; &amp;nbsp; &amp;nbsp; &amp;nbsp; &amp;nbsp; &amp;nbsp;varchar&lt;/span&gt;&lt;/td&gt;&lt;/tr&gt;&lt;tr style=&quot;font-size: 12px;&quot;&gt;&lt;td style=&quot;font-size: 12px;&quot;&gt;&lt;br&gt;&lt;/td&gt;&lt;td style=&quot;font-size: 12px;&quot;&gt;&lt;table style=&quot;border-color: var(--border-color); font-size: 12px; width: 180px;&quot; cellpadding=&quot;2&quot; cellspacing=&quot;0&quot;&gt;&lt;tbody style=&quot;border-color: var(--border-color); font-size: 12px;&quot;&gt;&lt;tr style=&quot;border-color: var(--border-color); font-size: 12px;&quot;&gt;&lt;td style=&quot;border-color: var(--border-color); font-size: 12px;&quot;&gt;&lt;br&gt;&lt;/td&gt;&lt;/tr&gt;&lt;tr style=&quot;border-color: var(--border-color); font-size: 12px;&quot;&gt;&lt;td style=&quot;border-color: var(--border-color); font-size: 12px;&quot;&gt;&lt;span style=&quot;font-size: 12px;&quot;&gt;&lt;br style=&quot;font-size: 12px;&quot;&gt;&lt;br style=&quot;font-size: 12px;&quot;&gt;&lt;/span&gt;&lt;/td&gt;&lt;td style=&quot;border-color: var(--border-color); font-size: 12px;&quot;&gt;&lt;span style=&quot;font-size: 12px;&quot;&gt;&lt;br style=&quot;font-size: 12px;&quot;&gt;&lt;/span&gt;&lt;/td&gt;&lt;/tr&gt;&lt;/tbody&gt;&lt;/table&gt;&lt;/td&gt;&lt;/tr&gt;&lt;/tbody&gt;&lt;/table&gt;" style="verticalAlign=middle;align=center;overflow=fill;html=1;whiteSpace=wrap;fillColor=#fff2cc;strokeColor=#d6b656;gradientColor=#ffd966;fontStyle=1;fontSize=12;horizontal=1;labelBorderColor=default;" vertex="1" parent="1">
          <mxGeometry x="80" y="320" width="210" height="70" as="geometry" />
        </mxCell>
        <mxCell id="9Ty_2uQjHelVY3vemoVg-40" value="" style="edgeStyle=entityRelationEdgeStyle;fontSize=12;html=1;endArrow=ERoneToMany;rounded=0;entryX=1;entryY=0.5;entryDx=0;entryDy=0;exitX=0;exitY=0.25;exitDx=0;exitDy=0;" edge="1" parent="1" source="9Ty_2uQjHelVY3vemoVg-3" target="9Ty_2uQjHelVY3vemoVg-6">
          <mxGeometry width="100" height="100" relative="1" as="geometry">
            <mxPoint x="30" y="50" as="sourcePoint" />
            <mxPoint x="80" y="90" as="targetPoint" />
          </mxGeometry>
        </mxCell>
        <mxCell id="9Ty_2uQjHelVY3vemoVg-41" value="" style="fontSize=12;html=1;endArrow=ERoneToMany;rounded=0;exitX=0.007;exitY=0.384;exitDx=0;exitDy=0;exitPerimeter=0;entryX=0;entryY=0.75;entryDx=0;entryDy=0;edgeStyle=orthogonalEdgeStyle;" edge="1" parent="1" source="9Ty_2uQjHelVY3vemoVg-7" target="9Ty_2uQjHelVY3vemoVg-6">
          <mxGeometry width="100" height="100" relative="1" as="geometry">
            <mxPoint x="20" y="320" as="sourcePoint" />
            <mxPoint x="-260" y="110" as="targetPoint" />
            <Array as="points">
              <mxPoint x="-210" y="307" />
              <mxPoint x="-210" y="222" />
            </Array>
          </mxGeometry>
        </mxCell>
        <mxCell id="9Ty_2uQjHelVY3vemoVg-43" value="" style="edgeStyle=entityRelationEdgeStyle;fontSize=12;html=1;endArrow=ERmandOne;startArrow=ERmandOne;rounded=0;entryX=1;entryY=0.25;entryDx=0;entryDy=0;exitX=1;exitY=0.357;exitDx=0;exitDy=0;exitPerimeter=0;" edge="1" parent="1" source="9Ty_2uQjHelVY3vemoVg-8" target="9Ty_2uQjHelVY3vemoVg-3">
          <mxGeometry width="100" height="100" relative="1" as="geometry">
            <mxPoint x="325" y="200" as="sourcePoint" />
            <mxPoint x="425" y="100" as="targetPoint" />
          </mxGeometry>
        </mxCell>
        <mxCell id="9Ty_2uQjHelVY3vemoVg-44" value="" style="edgeStyle=entityRelationEdgeStyle;fontSize=12;html=1;endArrow=ERoneToMany;rounded=0;entryX=1;entryY=0.75;entryDx=0;entryDy=0;exitX=1;exitY=0.5;exitDx=0;exitDy=0;" edge="1" parent="1" source="9Ty_2uQjHelVY3vemoVg-9" target="9Ty_2uQjHelVY3vemoVg-8">
          <mxGeometry width="100" height="100" relative="1" as="geometry">
            <mxPoint x="360" y="350" as="sourcePoint" />
            <mxPoint x="460" y="250" as="targetPoint" />
          </mxGeometry>
        </mxCell>
        <mxCell id="9Ty_2uQjHelVY3vemoVg-5" value="&lt;div style=&quot;box-sizing: border-box; width: 100%; background: rgb(228, 228, 228); padding: 2px; font-size: 12px;&quot;&gt;LIKES&lt;/div&gt;&lt;table style=&quot;width: 100%; font-size: 12px;&quot; cellpadding=&quot;2&quot; cellspacing=&quot;0&quot;&gt;&lt;tbody style=&quot;font-size: 12px;&quot;&gt;&lt;tr style=&quot;font-size: 12px;&quot;&gt;&lt;td style=&quot;font-size: 12px;&quot;&gt;&lt;span style=&quot;font-size: 12px;&quot;&gt;PK&lt;/span&gt;&lt;/td&gt;&lt;td style=&quot;font-size: 12px;&quot;&gt;&lt;span style=&quot;font-size: 12px;&quot;&gt;FILM_ID&amp;nbsp; &amp;nbsp; &amp;nbsp; &amp;nbsp; &amp;nbsp; &amp;nbsp; &amp;nbsp; &amp;nbsp; &amp;nbsp; &amp;nbsp; &amp;nbsp; &amp;nbsp; &amp;nbsp; &amp;nbsp; &amp;nbsp; &amp;nbsp; int&lt;/span&gt;&lt;/td&gt;&lt;/tr&gt;&lt;tr style=&quot;font-size: 12px;&quot;&gt;&lt;td style=&quot;font-size: 12px;&quot;&gt;FK&lt;/td&gt;&lt;td style=&quot;font-size: 12px;&quot;&gt;&lt;span style=&quot;font-size: 12px;&quot;&gt;USER_ID&amp;nbsp; &amp;nbsp; &amp;nbsp; &amp;nbsp; &amp;nbsp; &amp;nbsp; &amp;nbsp; &amp;nbsp; &amp;nbsp; &amp;nbsp; &amp;nbsp; &amp;nbsp; &amp;nbsp; &amp;nbsp; &amp;nbsp; int&lt;/span&gt;&lt;/td&gt;&lt;/tr&gt;&lt;tr style=&quot;font-size: 12px;&quot;&gt;&lt;td style=&quot;font-size: 12px;&quot;&gt;&lt;br&gt;&lt;/td&gt;&lt;td style=&quot;font-size: 12px;&quot;&gt;&lt;table style=&quot;border-color: var(--border-color); font-size: 12px; width: 180px;&quot; cellpadding=&quot;2&quot; cellspacing=&quot;0&quot;&gt;&lt;tbody style=&quot;border-color: var(--border-color); font-size: 12px;&quot;&gt;&lt;tr style=&quot;border-color: var(--border-color); font-size: 12px;&quot;&gt;&lt;td style=&quot;border-color: var(--border-color); font-size: 12px;&quot;&gt;&lt;br&gt;&lt;/td&gt;&lt;/tr&gt;&lt;tr style=&quot;border-color: var(--border-color); font-size: 12px;&quot;&gt;&lt;td style=&quot;border-color: var(--border-color); font-size: 12px;&quot;&gt;&lt;span style=&quot;font-size: 12px;&quot;&gt;&lt;br style=&quot;font-size: 12px;&quot;&gt;&lt;br style=&quot;font-size: 12px;&quot;&gt;&lt;/span&gt;&lt;/td&gt;&lt;td style=&quot;border-color: var(--border-color); font-size: 12px;&quot;&gt;&lt;span style=&quot;font-size: 12px;&quot;&gt;&lt;br style=&quot;font-size: 12px;&quot;&gt;&lt;/span&gt;&lt;/td&gt;&lt;/tr&gt;&lt;/tbody&gt;&lt;/table&gt;&lt;/td&gt;&lt;/tr&gt;&lt;/tbody&gt;&lt;/table&gt;" style="verticalAlign=middle;align=center;overflow=fill;html=1;whiteSpace=wrap;fillColor=#fff2cc;strokeColor=#d6b656;gradientColor=#ffd966;fontStyle=1;fontSize=12;horizontal=1;labelBorderColor=default;" vertex="1" parent="1">
          <mxGeometry x="80" y="430" width="210" height="70" as="geometry" />
        </mxCell>
        <mxCell id="9Ty_2uQjHelVY3vemoVg-49" value="" style="edgeStyle=entityRelationEdgeStyle;fontSize=12;html=1;endArrow=ERmany;rounded=0;" edge="1" parent="1" source="9Ty_2uQjHelVY3vemoVg-6">
          <mxGeometry width="100" height="100" relative="1" as="geometry">
            <mxPoint x="50" y="90" as="sourcePoint" />
            <mxPoint x="80" y="460" as="targetPoint" />
          </mxGeometry>
        </mxCell>
        <mxCell id="9Ty_2uQjHelVY3vemoVg-50" value="" style="edgeStyle=elbowEdgeStyle;fontSize=12;html=1;endArrow=ERoneToMany;rounded=0;exitX=0;exitY=0.25;exitDx=0;exitDy=0;" edge="1" parent="1" source="9Ty_2uQjHelVY3vemoVg-1">
          <mxGeometry width="100" height="100" relative="1" as="geometry">
            <mxPoint x="630" y="160" as="sourcePoint" />
            <mxPoint x="290" y="480" as="targetPoint" />
            <Array as="points">
              <mxPoint x="360" y="330" />
            </Array>
          </mxGeometry>
        </mxCell>
        <mxCell id="9Ty_2uQjHelVY3vemoVg-54" value="" style="edgeStyle=orthogonalEdgeStyle;fontSize=12;html=1;endArrow=ERoneToMany;rounded=0;entryX=1;entryY=0.25;entryDx=0;entryDy=0;exitX=1;exitY=0.25;exitDx=0;exitDy=0;" edge="1" parent="1" source="9Ty_2uQjHelVY3vemoVg-1" target="9Ty_2uQjHelVY3vemoVg-4">
          <mxGeometry width="100" height="100" relative="1" as="geometry">
            <mxPoint x="500" y="515" as="sourcePoint" />
            <mxPoint x="600" y="415" as="targetPoint" />
            <Array as="points">
              <mxPoint x="640" y="175" />
              <mxPoint x="640" y="315" />
            </Array>
          </mxGeometry>
        </mxCell>
        <mxCell id="9Ty_2uQjHelVY3vemoVg-55" value="" style="edgeStyle=orthogonalEdgeStyle;fontSize=12;html=1;endArrow=ERoneToMany;rounded=0;entryX=0;entryY=0.5;entryDx=0;entryDy=0;exitX=0;exitY=0.25;exitDx=0;exitDy=0;" edge="1" parent="1" source="9Ty_2uQjHelVY3vemoVg-1" target="9Ty_2uQjHelVY3vemoVg-4">
          <mxGeometry width="100" height="100" relative="1" as="geometry">
            <mxPoint x="100" y="400" as="sourcePoint" />
            <mxPoint x="200" y="300" as="targetPoint" />
            <Array as="points">
              <mxPoint x="360" y="175" />
              <mxPoint x="360" y="335" />
            </Array>
          </mxGeometry>
        </mxCell>
      </root>
    </mxGraphModel>
  </diagram>
</mxfile>
